<?xml version="1.0" encoding="utf-8"?>
<!-- Generator: Adobe Illustrator 16.0.0, SVG Export Plug-In . SVG Version: 6.00 Build 0)  -->
<!DOCTYPE svg PUBLIC "-//W3C//DTD SVG 1.1//EN" "http://www.w3.org/Graphics/SVG/1.1/DTD/svg11.dtd">
<svg version="1.1" xmlns="http://www.w3.org/2000/svg" xmlns:xlink="http://www.w3.org/1999/xlink" x="0px" y="0px"
	 width="302.667px" height="144px" viewBox="0 0 302.667 144" enable-background="new 0 0 302.667 144" xml:space="preserve">
<g id="Layer_1">
	<g>
		<path fill="#EC3237" d="M102.295,77.309c0,5.981-2.68,10.89-8.037,14.726c-5.359,3.838-11.183,5.755-17.471,5.755
			c-5.519,0-10.972-1.646-16.362-4.939c-5.39-3.292-8.502-4.938-9.337-4.938c-2.117,0-3.433,0.756-3.946,2.266
			c-0.514,1.511-0.996,4.048-1.445,7.612h-1.634V65.346h1.634c0.384,1.269,1.041,3.353,1.97,6.253
			c0.928,2.9,2.657,6.36,5.189,10.376c2.53,4.019,5.862,7.356,9.994,10.014c4.132,2.659,8.92,3.988,14.366,3.988
			c3.138,0,5.701-0.785,7.687-2.356c1.985-1.57,2.979-3.443,2.979-5.619c0-2.597-0.737-4.652-2.21-6.163
			c-1.475-1.51-4.132-2.975-7.976-4.395c-3.844-1.418-7.912-2.946-12.203-4.577c-4.293-1.631-8.841-3.836-13.646-6.616
			c-4.805-2.719-7.208-7.854-7.208-15.406c0-5.92,2.53-10.935,7.592-15.044c5.06-4.108,10.89-6.163,17.489-6.163
			c3.651,0,7.207,0.816,10.666,2.447l9.994,5.255c1.857,0,3.075-0.739,3.652-2.22c0.576-1.479,0.865-3.307,0.865-5.482h1.826v24.016
			h-1.729c-0.32-1.026-0.975-2.778-1.965-5.256c-0.991-2.477-2.907-5.257-5.75-8.338c-2.844-3.081-5.655-5.301-8.434-6.661
			c-2.781-1.359-6.118-2.039-10.015-2.039c-2.622,0-5.049,0.725-7.285,2.174c-2.238,1.45-3.354,3.263-3.354,5.438
			c0,2.297,0.849,4.214,2.547,5.755c1.696,1.541,3.651,2.764,5.862,3.67c2.209,0.906,5.269,2.054,9.177,3.443
			c3.906,1.391,7.959,3.007,12.156,4.849c4.194,1.843,7.639,4.531,10.329,8.065C100.951,68.291,102.295,72.476,102.295,77.309z"/>
	</g>
	<path fill="#EC3237" d="M105.774,94.734v-5.263h4.34V68.209h-4.34v-5.263h13.02v6.201h0.186c1.576-2.642,3.129-4.396,4.659-5.263
		c1.529-0.866,3.731-1.301,6.605-1.301v6.019c-7.634,0-11.45,2.843-11.45,8.529v12.34h4.894v5.263H105.774z"/>
	<path fill="#EC3237" d="M139.416,89.77V68.701h-3.726v-5.215h12.941V89.77h2.892v5.215H135.69V89.77H139.416z"/>
	<path fill="#EC3237" d="M178.349,68.633l-3.433,0.034v-5.264l15.246,0.015l0.004,5.394h-3.483l-6.017,6.521l7.667,13.75L191.693,89
		v5.984l-14.609,0.183v-6h3.25L175.75,80.5l-5.145,3.583v5.708h2.897v5.193h-14.882v-5.193l3.963-0.037L162.5,55.083h-4v-6.109
		l12.105,0.12V76.5L178.349,68.633z"/>
	<path fill="#EC3237" d="M235.664,95.484v-6.514h3.712V69.011h-3.899v-6.451h11.163l0.059,5.96l0.995-0.007
		c1.517-2.736,3.013-4.553,4.486-5.451c1.473-0.897,3.593-1.347,6.36-1.347l0.215,7.721c-7.351,0-11.025,2.945-11.025,8.834
		l0.004,10.762h4.712v6.451H235.664z"/>
	<path fill="#EC3237" d="M225.107,89.008V70.394c0-2.911-1.219-5.196-3.655-6.855c-2.438-1.659-5.547-1.833-9.249-1.833
		c-3.425,0-5.688,0.153-8.033,1.555c-2.346,1.402-4.319,6.219-4.361,9.324l7.691,0.042c0.308-2.89,1.465-4.875,4.334-4.875
		c1.389,0,3.166-0.042,4.041,0.208c0.957,0.273,1.459,1.357,1.459,3.583l0.291,3.542c-2.046-0.333-5.413-0.163-8.158-0.163
		c-3.363,0-6.124,0.921-8.284,2.762c-2.16,1.841-2.808,4.442-2.808,7.867c0,3.083,0.54,5.614,2.483,7.529
		c1.944,1.917,4.443,2.874,7.497,2.874c3.301,0,7.28-0.838,8.343-4.776h0.938v4.391h11.267v-6.56H225.107z M217.625,85.384
		c0,0-6.458,8.583-10.917,2.667c0,0-3-6.083,2.917-7.75c0,0,2.625-1.083,8-0.208V85.384z"/>
	<text transform="matrix(1 0 0 1 115.3335 126)" fill="#EC3237" font-family="'Rockwell-Bold'" font-size="26">Seeds</text>
	<linearGradient id="SVGID_1_" gradientUnits="userSpaceOnUse" x1="142.2046" y1="26.8047" x2="121.4597" y2="45.6167">
		<stop  offset="0.2309" style="stop-color:#69B748"/>
		<stop  offset="0.4747" style="stop-color:#58AC48"/>
		<stop  offset="0.957" style="stop-color:#2B9147"/>
		<stop  offset="1" style="stop-color:#278E47"/>
	</linearGradient>
	<path fill="url(#SVGID_1_)" d="M114.334,22.5c0,0,36.083,7.938,26.333,33.188c0,0-2.125-12.271-11.583-18.396
		c-1.823-1.041,9.402,5.129,10.417,21.542c0,0-17.25-2.417-19.75-14.583C120.036,46.525,116.917,25.667,114.334,22.5z"/>
	<ellipse fill="none" stroke="#007FC3" stroke-width="3" stroke-miterlimit="10" cx="151.417" cy="72.5" rx="148.75" ry="69"/>
	<g>
		<linearGradient id="SVGID_2_" gradientUnits="userSpaceOnUse" x1="146.7134" y1="46.8555" x2="154.0464" y2="53.8555">
			<stop  offset="0.2309" style="stop-color:#69B748"/>
			<stop  offset="0.4747" style="stop-color:#58AC48"/>
			<stop  offset="0.957" style="stop-color:#2B9147"/>
			<stop  offset="1" style="stop-color:#278E47"/>
		</linearGradient>
		<path fill="url(#SVGID_2_)" d="M158.167,39.833c-5.217,1.699-10.433,6.102-10.736,6.36c-10.06,9.093-4.972,14.556-4.972,14.556
			c3.75-0.75,8.708-7.365,8.708-7.365c-0.947,3.099-7.5,7.698-7.5,7.698C159.917,61.083,158.167,39.833,158.167,39.833z"/>
		<linearGradient id="SVGID_3_" gradientUnits="userSpaceOnUse" x1="147.3862" y1="46.1504" x2="154.7192" y2="53.1504">
			<stop  offset="0.2309" style="stop-color:#69B748"/>
			<stop  offset="0.4747" style="stop-color:#58AC48"/>
			<stop  offset="0.957" style="stop-color:#2B9147"/>
			<stop  offset="1" style="stop-color:#278E47"/>
		</linearGradient>
		<path fill="url(#SVGID_3_)" d="M147.401,46.219c0,0,0.02-0.017,0.029-0.025c0.01-0.009,0.019-0.018,0.029-0.027L147.401,46.219z"
			/>
	</g>
	<g>
		<path fill="#EC3237" d="M260.616,58.954v-6.65h-2.375V50.95h6.36v1.354h-2.369v6.65H260.616z"/>
		<path fill="#EC3237" d="M265.623,58.954V50.95h2.418l1.453,5.459l1.436-5.459h2.424v8.004h-1.501v-6.301l-1.589,6.301h-1.557
			l-1.583-6.301v6.301H265.623z"/>
	</g>
</g>
<g id="Layer_2">
</g>
</svg>
